<?xml version="1.0" encoding="utf-8"?>
<!-- Generator: Adobe Illustrator 24.0.0, SVG Export Plug-In . SVG Version: 6.00 Build 0)  -->
<svg version="1.1" id="Layer_1" xmlns="http://www.w3.org/2000/svg" xmlns:xlink="http://www.w3.org/1999/xlink" x="0px" y="0px"
	 viewBox="0 0 128 128" style="enable-background:new 0 0 128 128;" xml:space="preserve">
<style type="text/css">
	.st0{fill:none;}
	.st1{fill:#333333;}
</style>
<rect class="st0" width="128" height="128"/>
<path class="st1" d="M123.3,43.1v-4.9L63.9,4.5L4.5,38.1v4.9h5.7v7.7H8.4v11.5h3.8v1.9c0,2.5,1.6,4.6,3.8,5.4v35.2
	c-2.2,0.8-3.8,2.9-3.8,5.4v2.1c-4.4,0.9-7.6,4.8-7.6,9.4v1.9h118.8v-1.9c0-4.6-3.3-8.5-7.6-9.4v-2.1c0-2.5-1.6-4.6-3.8-5.4V69.5
	c2.2-0.8,3.8-2.9,3.8-5.4v-1.9h3.8V50.7h-1.9v-7.6L123.3,43.1L123.3,43.1z M63.9,8.9l53.6,30.4h-9l-44.6-26l-44.6,26h-9L63.9,8.9z
	 M94.5,50.7v-7.6h7.6v7.6H94.5z M71.5,39.2c1.2-1.6,2-3.6,2-5.7c0-4.6-3.3-8.5-7.6-9.4v-5.3l35.1,20.4H71.5z M58.2,33.5
	c0-3.2,2.6-5.7,5.7-5.7c3.2,0,5.7,2.6,5.7,5.7s-2.6,5.7-5.7,5.7C60.7,39.2,58.2,36.7,58.2,33.5z M62,24.1c-4.4,0.9-7.6,4.8-7.6,9.4
	c0,2.2,0.7,4.1,2,5.7H26.9L62,18.8L62,24.1L62,24.1z M33.2,43.1v7.7h-7.6v-7.6L33.2,43.1L33.2,43.1z M37.1,43.1h7.6v7.7h-7.6V43.1z
	 M48.6,43.1h7.6v7.7h-7.6V43.1z M60.1,43.1h7.7v7.7h-7.6L60.1,43.1L60.1,43.1z M71.5,43.1h7.6v7.7h-7.6V43.1z M83.1,43.1h7.6v7.7
	h-7.6V43.1z M14.1,43.1h7.6v7.7h-7.6V43.1z M27.5,62.2v1.9c0,1.1-0.8,1.9-1.9,1.9h-7.7c-1.1,0-1.9-0.8-1.9-1.9v-1.9H27.5z
	 M111.8,112h-11.5v-1.9c0-1.1,0.8-1.9,1.9-1.9h7.6c1.1,0,1.9,0.8,1.9,1.9L111.8,112L111.8,112z M104.1,104.4V69.9h3.8v34.5
	L104.1,104.4L104.1,104.4z M100.3,69.5v35.2c-2.2,0.8-3.8,2.9-3.8,5.4v1.9h-7.6v-1.9c0-2.5-1.6-4.6-3.8-5.4V69.5
	c2.2-0.8,3.8-2.9,3.8-5.4v-1.9h7.6v1.9C96.5,66.6,98.1,68.7,100.3,69.5z M81.1,104.4h-3.8V69.9h3.8V104.4z M75.4,108.2H83
	c1.1,0,1.9,0.8,1.9,1.9v1.9H73.5v-1.9C73.5,109,74.3,108.2,75.4,108.2z M85,64.2c0,1.1-0.8,1.9-1.9,1.9h-7.6c-1.1,0-1.9-0.8-1.9-1.9
	v-1.9H85L85,64.2L85,64.2z M73.5,69.5v35.2c-2.2,0.8-3.8,2.9-3.8,5.4v1.9H58.2v-1.9c0-2.5-1.6-4.6-3.8-5.4V69.5
	c2.2-0.8,3.8-2.9,3.8-5.4v-1.9h11.5v1.9C69.6,66.6,71.2,68.7,73.5,69.5z M50.5,104.4h-3.8V69.9h3.8V104.4z M44.7,108.2h7.6
	c1.1,0,1.9,0.8,1.9,1.9v1.9H42.8v-1.9C42.8,109,43.7,108.2,44.7,108.2z M54.3,64.2c0,1.1-0.8,1.9-1.9,1.9h-7.6
	c-1.1,0-1.9-0.8-1.9-1.9v-1.9h11.5L54.3,64.2L54.3,64.2z M42.8,69.5v35.2c-2.2,0.8-3.8,2.9-3.8,5.4v1.9h-7.6v-1.9
	c0-2.5-1.6-4.6-3.8-5.4V69.5c2.2-0.8,3.8-2.9,3.8-5.4v-1.9H39v1.9C39,66.6,40.6,68.7,42.8,69.5z M23.7,69.9v34.5h-3.8V69.9H23.7z
	 M17.9,108.2h7.6c1.1,0,1.9,0.8,1.9,1.9v1.9H16v-1.9C16,109,16.9,108.2,17.9,108.2z M119.1,119.7H8.7c0.8-2.2,2.9-3.8,5.4-3.8h99.6
	C116.2,115.8,118.3,117.5,119.1,119.7z M111.8,64.2c0,1.1-0.8,1.9-1.9,1.9h-7.6c-1.1,0-1.9-0.8-1.9-1.9v-1.9h11.5V64.2z M115.6,58.4
	H12.2v-3.8h103.4V58.4z M113.7,50.7h-7.6v-7.6h7.6V50.7z"/>
</svg>
