<?xml version="1.0" encoding="utf-8"?>
<!-- Generator: Adobe Illustrator 24.0.0, SVG Export Plug-In . SVG Version: 6.00 Build 0)  -->
<svg version="1.1"
	 id="svg8855" inkscape:version="0.48.3.1 r9886" sodipodi:docname="Neues Dokument 3" xmlns:cc="http://creativecommons.org/ns#" xmlns:dc="http://purl.org/dc/elements/1.1/" xmlns:inkscape="http://www.inkscape.org/namespaces/inkscape" xmlns:rdf="http://www.w3.org/1999/02/22-rdf-syntax-ns#" xmlns:sodipodi="http://sodipodi.sourceforge.net/DTD/sodipodi-0.dtd" xmlns:svg="http://www.w3.org/2000/svg"
	 xmlns="http://www.w3.org/2000/svg" xmlns:xlink="http://www.w3.org/1999/xlink" x="0px" y="0px" viewBox="0 0 128 128"
	 style="enable-background:new 0 0 128 128;" xml:space="preserve">
<style type="text/css">
	.st0{fill:#FFFFFF;}
	.st1{clip-path:url(#SVGID_2_);}
	.st2{fill:#636466;}
	.st3{fill:#034EA2;}
	.st4{fill:#BCBEC0;}
	.st5{fill:#FFF200;}
</style>
<rect x="0" class="st0" width="128" height="128"/>
<g id="layer1" transform="translate(-284.00375,-486.65468)" inkscape:groupmode="layer" inkscape:label="Ebene 1">
	<g id="g1950" transform="matrix(1.25,0,0,-1.25,162.415,756.06468)">
		<g>
			<defs>
				<rect id="SVGID_1_" x="84.5" y="120" width="128" height="88.6"/>
			</defs>
			<clipPath id="SVGID_2_">
				<use xlink:href="#SVGID_1_"  style="overflow:visible;"/>
			</clipPath>
			<g id="g1952" class="st1">
				<g id="g1958" transform="translate(123.4476,160.60381)">
					<path id="path1960" inkscape:connector-curvature="0" class="st2" d="M-0.8-14.1c0.3,0,0.9,0,1.3-0.2c0.1,0,0.2-0.1,0.1-0.2
						l-0.1-0.3c0-0.1-0.1-0.1-0.2-0.1c-0.3,0-0.8,0.1-1.1,0.1c-0.9,0-1.1-0.8-1.1-1.7c0-0.9,0.2-1.6,1.1-1.6c0.4,0,0.7,0,1.1,0.1
						c0.1,0,0.2,0,0.2-0.1l0.1-0.3c0-0.1,0-0.2-0.1-0.2c-0.3-0.1-0.9-0.2-1.3-0.2c-1.6,0-1.9,1.1-1.9,2.3
						C-2.7-15.3-2.4-14.1-0.8-14.1"/>
				</g>
				<g id="g1962" transform="translate(126.5255,158.6875)">
					<path id="path1964" inkscape:connector-curvature="0" class="st2" d="M-0.9-14c-0.6,0-0.7-0.4-0.7-1.1c0-0.7,0.1-1.1,0.7-1.1
						c0.6,0,0.8,0.4,0.8,1.1C-0.1-14.4-0.3-14-0.9-14 M-0.9-16.9c-1.4,0-1.5,1-1.5,1.8c0,0.7,0.1,1.7,1.5,1.7c1.3,0,1.5-0.9,1.5-1.7
						C0.6-15.9,0.5-16.9-0.9-16.9"/>
				</g>
				<g id="g1966" transform="translate(133.5291,155.7879)">
					<path id="path1968" inkscape:connector-curvature="0" class="st2" d="M-1.1-13.9h-0.5c-0.1,0-0.1,0-0.1,0.1v2
						c0,0.5-0.1,0.7-0.5,0.7c-0.3,0-0.7-0.2-0.9-0.3c0-0.1,0-0.2,0-0.4v-2c0-0.1,0-0.1-0.1-0.1h-0.5c-0.1,0-0.1,0-0.1,0.1v2
						c0,0.4-0.1,0.6-0.5,0.6c-0.2,0-0.6-0.2-0.9-0.3v-2.3c0-0.1,0-0.1-0.1-0.1h-0.5c-0.1,0-0.1,0-0.1,0.1v3.1c0,0.1,0,0.1,0.1,0.1
						h0.5c0.1,0,0.1-0.1,0.1-0.1v-0.2l0,0c0.3,0.2,0.7,0.4,1,0.4c0.4,0,0.7-0.1,1-0.5c0.3,0.3,0.8,0.5,1.2,0.5c0.9,0,1-0.6,1-1.3v-2
						C-1-13.9-1-13.9-1.1-13.9"/>
				</g>
				<g id="g1970" transform="translate(135.0273,155.92419)">
					<path id="path1972" inkscape:connector-curvature="0" class="st2" d="M-1.1-13.9c0-0.1,0-0.1-0.1-0.1h-0.5
						c-0.1,0-0.1,0-0.1,0.1v3.1c0,0.1,0,0.1,0.1,0.1h0.5c0.1,0,0.1-0.1,0.1-0.1V-13.9z M-1.5-10.2c-0.4,0-0.4,0.2-0.4,0.4
						c0,0.2,0.1,0.4,0.4,0.4c0.3,0,0.4-0.2,0.4-0.4C-1.1-10-1.2-10.2-1.5-10.2"/>
				</g>
				<g id="g1974" transform="translate(136.80659,155.7303)">
					<path id="path1976" inkscape:connector-curvature="0" class="st2" d="M-1.2-13.9c-0.3,0-0.8,0-1.1,0.2
						c-0.1,0.1-0.2,0.1-0.1,0.2l0,0.2c0,0.1,0.1,0.1,0.2,0.1c0.3,0,0.8-0.1,1-0.1c0.4,0,0.6,0.1,0.6,0.4c0,0.3-0.1,0.4-0.6,0.5
						c-0.7,0.1-1.3,0.2-1.3,1c0,0.7,0.5,1.1,1.3,1.1c0.3,0,0.8,0,1.1-0.2c0.1,0,0.2-0.1,0.1-0.2L0-11c0-0.1-0.1-0.1-0.2-0.1
						c-0.3,0-0.7,0.1-0.9,0.1c-0.4,0-0.5-0.1-0.5-0.4c0-0.3,0.2-0.3,0.6-0.4c0.7-0.1,1.3-0.2,1.3-1.1C0.2-13.7-0.5-13.9-1.2-13.9"/>
				</g>
				<g id="g1978" transform="translate(139.51871,155.92419)">
					<path id="path1980" inkscape:connector-curvature="0" class="st2" d="M-1.3-13.9c0-0.1,0-0.1-0.1-0.1h-0.5C-2-14.1-2-14-2-13.9
						v3.1c0,0.1,0,0.1,0.1,0.1h0.5c0.1,0,0.1-0.1,0.1-0.1V-13.9z M-1.6-10.2c-0.4,0-0.4,0.2-0.4,0.4c0,0.2,0.1,0.4,0.4,0.4
						c0.3,0,0.4-0.2,0.4-0.4C-1.2-10-1.3-10.2-1.6-10.2"/>
				</g>
				<g id="g1982" transform="translate(142.5179,160.8763)">
					<path id="path1984" inkscape:connector-curvature="0" class="st2" d="M-1.4-14.1c0.1,0,0.1-0.1,0-0.2l-0.7-1c0,0-0.1-0.1-0.1,0
						l-0.3,0.1c0,0-0.1,0.1,0,0.1l0.6,1.1c0,0.1,0.1,0.1,0.2,0L-1.4-14.1z M-2.3-16.2c-0.6,0-0.7-0.4-0.7-1.1c0-0.7,0.1-1.1,0.7-1.1
						c0.6,0,0.8,0.4,0.8,1.1C-1.5-16.6-1.6-16.2-2.3-16.2 M-2.3-19.1c-1.4,0-1.5,1-1.5,1.8c0,0.7,0.1,1.7,1.5,1.7
						c1.3,0,1.5-0.9,1.5-1.7C-0.7-18.1-0.8-19.1-2.3-19.1"/>
				</g>
				<g id="g1986" transform="translate(146.62939,155.7879)">
					<path id="path1988" inkscape:connector-curvature="0" class="st2" d="M-1.5-13.9H-2c-0.1,0-0.1,0-0.1,0.1l0,2
						c0,0.4-0.1,0.7-0.5,0.7c-0.3,0-0.8-0.2-1-0.3v-2.3c0-0.1,0-0.1-0.1-0.1h-0.5c-0.1,0-0.1,0-0.1,0.1v3.1c0,0.1,0,0.1,0.1,0.1h0.5
						c0.1,0,0.1,0,0.1-0.1v-0.2c0,0,0,0,0,0c0.3,0.2,0.7,0.4,1.2,0.4c0.9,0,1-0.6,1-1.3v-2C-1.4-13.9-1.4-13.9-1.5-13.9"/>
				</g>
				<g id="g1990" transform="translate(121.51691,152.83659)">
					<path id="path1992" inkscape:connector-curvature="0" class="st2" d="M-0.7-13.8c0,0.1,0,0.1,0.1,0.1H2c0.1,0,0.1,0,0.1-0.1
						v-0.4c0-0.1,0-0.1-0.1-0.1H0.1v-1.2h1.7c0.1,0,0.1,0,0.1-0.1v-0.4c0-0.1,0-0.1-0.1-0.1H0.1v-1.4H2c0.1,0,0.1,0,0.1-0.1v-0.4
						c0-0.1,0-0.1-0.1-0.1h-2.6c-0.1,0-0.1,0-0.1,0.1V-13.8z"/>
				</g>
				<g id="g1994" transform="translate(127.8028,148.2146)">
					<path id="path1996" inkscape:connector-curvature="0" class="st2" d="M-0.9-13.7h-0.5c-0.1,0-0.1,0-0.1,0.1v0.2l0,0
						c-0.3-0.2-0.7-0.4-1.2-0.4c-0.9,0-1,0.6-1,1.3v2c0,0.1,0,0.1,0.1,0.1h0.5c0.1,0,0.1,0,0.1-0.1v-2c0-0.4,0.1-0.7,0.5-0.7
						c0.3,0,0.8,0.2,0.9,0.3v2.3c0,0.1,0,0.1,0.1,0.1h0.5c0.1,0,0.1,0,0.1-0.1v-3.1C-0.8-13.7-0.8-13.7-0.9-13.7"/>
				</g>
				<g id="g1998" transform="translate(129.3374,148.35091)">
					<path id="path2000" inkscape:connector-curvature="0" class="st2" d="M-1-13.7c0-0.1,0-0.1-0.1-0.1h-0.5c-0.1,0-0.1,0-0.1,0.1
						v3.1c0,0.1,0,0.1,0.1,0.1h0.5c0.1,0,0.1-0.1,0.1-0.1v-0.3l0,0c0.2,0.2,0.7,0.4,1,0.5c0.1,0,0.2,0,0.2-0.1l0-0.5
						c0-0.1,0-0.1-0.1-0.2c-0.4-0.1-0.9-0.2-1.1-0.3V-13.7z"/>
				</g>
				<g id="g2002" transform="translate(132.3582,151.1142)">
					<path id="path2004" inkscape:connector-curvature="0" class="st2" d="M-1.1-13.8c-0.6,0-0.7-0.4-0.7-1.1c0-0.7,0.1-1.1,0.7-1.1
						c0.6,0,0.8,0.4,0.8,1.1C-0.3-14.2-0.4-13.8-1.1-13.8 M-1.1-16.7c-1.4,0-1.5,1-1.5,1.8c0,0.7,0.1,1.7,1.5,1.7
						c1.3,0,1.5-0.9,1.5-1.7C0.5-15.6,0.4-16.7-1.1-16.7"/>
				</g>
				<g id="g2006" transform="translate(136.0818,151.071)">
					<path id="path2008" inkscape:connector-curvature="0" class="st2" d="M-1.2-13.8c-0.3,0-0.7-0.2-0.9-0.3v-1.7
						c0.3-0.1,0.6-0.1,0.8-0.1c0.5,0,0.7,0.3,0.7,1.1C-0.6-13.9-0.8-13.8-1.2-13.8 M-1.2-16.6c-0.2,0-0.5,0-0.9,0.2l0,0v-1.2
						c0-0.1,0-0.1-0.1-0.1h-0.5c-0.1,0-0.1,0-0.1,0.1v4.4c0,0.1,0,0.1,0.1,0.1h0.5c0.1,0,0.1-0.1,0.1-0.1v-0.2l0,0
						c0.3,0.2,0.7,0.4,1.1,0.4c0.9,0,1.1-0.7,1.1-1.7C0.2-16-0.1-16.6-1.2-16.6"/>
				</g>
				<g id="g2010" transform="translate(138.6931,150.29601)">
					<path id="path2012" inkscape:connector-curvature="0" class="st2" d="M-1.3-13.8h1.4c0,0.4-0.1,0.8-0.7,0.8
						C-1.1-12.9-1.2-13.2-1.3-13.8 M-1.3-14.3c0-0.7,0.3-0.9,0.8-0.9c0.3,0,0.6,0,0.9,0.1c0.1,0,0.2,0,0.2-0.1l0-0.2
						c0-0.1,0-0.2-0.1-0.2c-0.3-0.1-0.8-0.2-1.1-0.2C-1.9-15.8-2-15-2-14.1c0,0.7,0.1,1.8,1.5,1.8c1.2,0,1.5-0.8,1.5-1.6
						c0-0.3-0.1-0.4-0.3-0.4C0.6-14.3-1.3-14.3-1.3-14.3z"/>
				</g>
				<g id="g2014" transform="translate(143.3356,149.81531)">
					<path id="path2016" inkscape:connector-curvature="0" class="st2" d="M-1.4-13.8h-0.8c-0.3,0-0.6-0.1-0.6-0.6
						c0-0.3,0.1-0.4,0.4-0.4c0.3,0,0.7,0.2,1,0.3V-13.8z M-1.4-14.9c-0.3-0.3-0.8-0.5-1.3-0.5c-0.7,0-1,0.4-1,1
						c0,0.8,0.4,1.2,1.3,1.2h0.9v0.2c0,0.4-0.2,0.6-0.7,0.6c-0.2,0-0.7,0-0.9-0.1c-0.1,0-0.2,0-0.2,0.1l-0.1,0.3
						c0,0.1,0,0.1,0.2,0.2c0.3,0.1,0.8,0.2,1.2,0.2c1.2,0,1.4-0.5,1.4-1.3v-1.3c0-0.3,0-0.3,0.3-0.3c0.1,0,0.1,0,0.1-0.1v-0.3
						c0-0.1,0-0.1-0.2-0.1c-0.1,0-0.2,0-0.3,0C-1.1-15.3-1.3-15.2-1.4-14.9C-1.3-14.9-1.4-14.9-1.4-14.9z"/>
				</g>
				<path id="path2018" inkscape:connector-curvature="0" class="st3" d="M118.2,128.6h44.1v2.5h-44.1
					C118.2,131.1,118.2,128.6,118.2,128.6z"/>
				<g id="g2020" transform="translate(97.271301,196.26511)">
					<path id="path2022" inkscape:connector-curvature="0" class="st4" d="M0-15.2c0,0,30.3,4,31.2,4.1c1.3,0.2,2.5,0.5,3.6,0.8
						c2.5,0.7,4.7,1.7,6.7,3.1C43.4-5.9,45.2-4,47-2c1.1,1.3,2.3,3,3.4,4.7v0.8c-1.3-1.9-2.6-3.6-3.9-5.1c-1.8-2-3.6-3.6-5.5-4.8
						c-1.9-1.3-4.1-2.2-6.5-2.8c-1.1-0.3-2.2-0.5-3.5-0.7c-0.8-0.1-1.7-0.2-2.5-0.3c-0.3,0-28.5-3-28.5-3V-15.2z"/>
				</g>
				<g id="g2024" transform="translate(139.23689,201.55231)">
					<path id="path2026" inkscape:connector-curvature="0" class="st4" d="M-1.3-15.3c-1.9-1.1-4.1-1.9-6.5-2.4
						c-1-0.2-2.2-0.4-3.5-0.5c-0.8-0.1-1.5-0.1-2.3-0.2c-0.4,0-0.8-0.1-1.2-0.1c-9.3-0.8-18.6-1.7-27.2-2.6v-2
						c8.7,1.1,18,2.2,27.3,3.2c0.4,0,0.8,0.1,1.2,0.1c0.8,0.1,1.5,0.2,2.3,0.3c1.3,0.2,2.5,0.4,3.5,0.6c2.5,0.6,4.8,1.5,6.8,2.7
						c2,1.2,3.7,2.8,5.5,4.9c1.2,1.3,2.4,3,3.6,4.7v0.7c-1.4-1.9-2.8-3.6-4.1-5C2.5-12.7,0.6-14.2-1.3-15.3"/>
				</g>
				<g id="g2028" transform="translate(144.7137,202.0535)">
					<path id="path2030" inkscape:connector-curvature="0" class="st4" d="M-1.4-15.3c-1.9-1.7-3.8-3.1-5.7-4
						c-1.9-0.9-4.1-1.6-6.6-2c-1-0.2-2.2-0.3-3.4-0.4l-30.3-2.5v-2l26.9,2.9L-17-23c1.3,0.2,2.5,0.3,3.5,0.5
						c2.6,0.5,4.8,1.2,6.8,2.2c2,1,4,2.7,5.9,4.6c1.3,1.2,2.5,2.8,3.8,4.4v0.7C1.4-12.5,0-14-1.4-15.3"/>
				</g>
				<g id="g2032" transform="translate(137.1649,191.4541)">
					<path id="path2034" inkscape:connector-curvature="0" class="st4" d="M-1.2-15c-1.8-1-3.1-1.6-5.6-1.8
						c-1.5-0.2-3.1-0.2-4.6-0.3c-0.7,0-1.5-0.1-2.2-0.1c-4.6-0.3-9.1-0.6-13.6-0.9L-39.9-19v-2l12.8,1.2c4.1,0.4,8.9,0.8,13.6,1.2
						l3.4,0.3c1.3,0.1,2.4,0.2,3.4,0.3c2.6,0.3,4.8,0.9,6.8,1.6c2.1,0.8,4.1,2,6.1,3.5C8-11.6,10.5-9,10.5-9v0.7
						C8.8-9.9,7.9-10.8,6.1-12C4-13.4,0.4-14.1-1.2-15"/>
				</g>
				<g id="g2036" transform="translate(137.8286,187.5752)">
					<path id="path2038" inkscape:connector-curvature="0" class="st4" d="M-1.2-14.9c-1.9-0.6-4.1-0.9-6.6-1.2
						c-1-0.1-2.1-0.2-3.4-0.2l-3.4-0.2c-8.4-0.4-16.8-0.8-26-1.3v-2c8.8,0.7,17.5,1.4,26.1,2l3.4,0.2c1.3,0.1,2.4,0.2,3.4,0.3
						c2.6,0.3,4.8,0.7,6.7,1.4c2.2,0.7,4.3,1.7,6.3,3c1.5,0.9,3,2.1,4.5,3.4v0c-1.7-1.5-3.3-1.8-4.9-2.7C2.9-13.4,0.9-14.3-1.2-14.9
						"/>
				</g>
				<g id="g2040" transform="translate(137.5067,184.1935)">
					<path id="path2042" inkscape:connector-curvature="0" class="st4" d="M-1.2-14.8c-1.9-0.5-4-0.7-6.6-0.9c-1-0.1-2-0.1-3.3-0.2
						l-3.4-0.1c-8.4-0.3-17-0.7-25.8-1.1v-2c8.7,0.6,17.2,1.2,25.8,1.7l3.3,0.2c1.3,0.1,2.4,0.2,3.4,0.2c2.6,0.2,4.7,0.6,6.7,1.1
						c2.2,0.6,4.4,1.4,6.4,2.5c1.6,0.8,3.1,1.8,4.7,3.1v0.8c-1.7-1.3-3.4-2.3-5.1-3.2C3-13.5,0.9-14.3-1.2-14.8"/>
				</g>
				<g id="g2044" transform="translate(137.2112,180.8779)">
					<path id="path2046" inkscape:connector-curvature="0" class="st4" d="M-1.2-14.7c-1.9-0.4-4-0.6-6.5-0.7c-1,0-2-0.1-3.3-0.1
						l-28.9-0.8v-2l25.6,1.3l3.3,0.2c1.3,0.1,2.4,0.1,3.3,0.2c2.6,0.2,4.7,0.5,6.6,0.9c2.2,0.5,4.4,1.1,6.4,2c1.6,0.7,3.3,1.6,5,2.6
						v0.8c-1.8-1.1-3.6-1.9-5.3-2.6C3.1-13.7,1-14.3-1.2-14.7"/>
				</g>
				<g id="g2048" transform="translate(136.97771,177.5484)">
					<path id="path2050" inkscape:connector-curvature="0" class="st4" d="M-1.2-14.6c-3.5-0.5-7.2-0.5-10.7-0.6c-0.8,0-1.6,0-2.4,0
						l-25.4-0.5v-2l25.4,1.1c0.8,0,1.6,0.1,2.4,0.1c3.6,0.1,7.2,0.3,10.8,0.9c2.3,0.4,4.5,0.9,6.5,1.6c1.7,0.6,3.4,1.3,5.2,2.2v0.8
						c-1.9-0.9-3.7-1.6-5.5-2.1C3.2-13.8,1-14.3-1.2-14.6"/>
				</g>
				<g id="g2052" transform="translate(136.76981,174.19769)">
					<path id="path2054" inkscape:connector-curvature="0" class="st4" d="M-1.2-14.5c-3.3-0.3-6.7-0.3-10-0.3c-1,0-2,0-3.1,0
						c-8.4,0-16.7-0.1-25.2-0.2v-2c8.1,0.3,16.7,0.6,25.3,0.8c1,0,2,0.1,3.1,0.1c3.3,0.1,6.7,0.2,10.1,0.5c2.3,0.3,4.5,0.6,6.5,1.1
						c1.8,0.4,3.6,1,5.4,1.7v0.7c-1.9-0.7-3.8-1.2-5.6-1.7C3.2-14,1.1-14.3-1.2-14.5"/>
				</g>
				<g id="g2056" transform="translate(136.6375,170.8945)">
					<path id="path2058" inkscape:connector-curvature="0" class="st4" d="M-1.2-14.4c-1.4-0.1-2.9-0.1-4.6-0.1c-0.6,0-1.3,0-1.9,0
						l-6.5,0.1c-4.5,0-8.9,0-13.1,0l-12.1,0v-2l12.1,0.3c4.2,0.1,8.6,0.2,13.1,0.3l6.5,0.1c1.8,0,4.2,0.1,6.6,0.2
						c2.3,0.2,4.5,0.4,6.5,0.7c1.8,0.3,3.7,0.7,5.6,1.2v0.7c-1.9-0.4-3.9-0.8-5.7-1.1C3.2-14.1,1.1-14.3-1.2-14.4"/>
				</g>
				<g id="g2060" transform="translate(129.8508,167.70261)">
					<path id="path2062" inkscape:connector-curvature="0" class="st4" d="M-1-14.3l-6.5,0.1c-8.3,0.1-16.6,0.3-25.1,0.4v-2
						c8.1,0.1,16.6,0.1,25.1,0.2l6.5,0.1c2.2,0,4.3,0.1,6.5,0.2c4.5,0.1,8.5,0.5,12.2,1v0.7C14-14.1,10-14.3,5.5-14.3
						C3.4-14.3,1.2-14.3-1-14.3"/>
				</g>
				<g id="g2064" transform="translate(149.20489,164.11211)">
					<path id="path2066" inkscape:connector-curvature="0" class="st4" d="M-1.6-14.2l-50.4,1.3v-2h50.4V-14.2z"/>
				</g>
				<g id="g2068" transform="translate(144.52879,198.218)">
					<path id="path2070" inkscape:connector-curvature="0" class="st4" d="M-1.4-15.2c-1.9-1.5-3.4-2.6-5.7-3.6
						c-2-0.8-4.2-1.2-6.7-1.5c-1.6-0.2-3.3-0.6-4.9-0.7c-0.7,0-1.3-0.1-2-0.1l-26.5-1.9v-2l26.6,2.6l3.4,0.3
						c1.3,0.1,2.4,0.3,3.5,0.4c2.6,0.4,4.8,1.1,6.8,1.9c2.1,0.9,4.2,2.4,6.1,4.1c1.3,1.1,2.6,2.5,4,4.1v0.7C1.4-12.6,0-14-1.4-15.2"
						/>
				</g>
				<g id="g2072" transform="translate(171.3067,215.5284)">
					<path id="path2074" inkscape:connector-curvature="0" class="st4" d="M-2.2-15.7c0,0,9.1-14.4,10.7-17.1
						c1.7-2.6,3.6-4.7,10.3-6.2c6.7-1.4,9.6-2.1,9.6-2.1v-0.5c0,0-4.3,0.9-9.7,2.1s-7.7,1.6-10.2,5.1C6.3-31.5-2.2-19.1-2.2-19.1
						V-15.7z"/>
				</g>
				<g id="g2076" transform="translate(171.3067,198.5282)">
					<path id="path2078" inkscape:connector-curvature="0" class="st4" d="M-2.2-15.2c0,0,8.3-8.6,10.6-11.1
						c2.5-2.6,5.8-3.6,10.3-4.4c4.3-0.8,9.7-1.7,9.7-1.7v-0.5c0,0-5.1,0.8-9.7,1.6c-4.5,0.8-7.7,1.2-10.3,3.6
						C6-25.5-2.2-17.8-2.2-17.8V-15.2z"/>
				</g>
				<g id="g2080" transform="translate(171.3067,194.51109)">
					<path id="path2082" inkscape:connector-curvature="0" class="st4" d="M-2.2-15.1c0,0,7.8-7.3,10.6-9.8c2.6-2.3,4.6-3,10.3-4
						c5.6-1,9.7-1.6,9.7-1.6V-31c0,0-5.1,0.8-9.7,1.6c-4.6,0.7-7.5,1-10.3,3.2c-3.2,2.6-10.6,8.7-10.6,8.7V-15.1z"/>
				</g>
				<g id="g2084" transform="translate(171.3067,190.2287)">
					<path id="path2086" inkscape:connector-curvature="0" class="st4" d="M-2.2-15c0,0,9-7.1,10.6-8.4c1.7-1.2,3.9-2.7,10.3-3.6
						c6.4-0.9,9.6-1.4,9.6-1.4v-0.5c0,0-5.8,0.8-9.6,1.3c-3.9,0.5-6.8,0.7-10.3,3c-3.4,2.2-10.7,7.4-10.7,7.4V-15z"/>
				</g>
				<g id="g2088" transform="translate(171.3067,186.112)">
					<path id="path2090" inkscape:connector-curvature="0" class="st4" d="M-2.2-14.9c0,0,9-6,10.7-6.9s3.7-2.5,10.3-3.3
						c6.6-0.8,9.6-1.2,9.6-1.2v-0.5c0,0-5.4,0.6-9.7,1.1c-4.2,0.5-7.1,1.1-10.3,2.8c-3.2,1.7-10.6,6.1-10.6,6.1V-14.9z"/>
				</g>
				<g id="g2092" transform="translate(171.3067,181.99519)">
					<path id="path2094" inkscape:connector-curvature="0" class="st4" d="M-2.2-14.7c0,0,7.9-4.3,10.6-5.7c3-1.5,5.6-2.2,10.3-2.8
						c4.6-0.5,9.7-1.1,9.7-1.1v-0.5c0,0-4.7,0.5-9.7,1c-5,0.5-6.7,0.7-10.3,2.3c-3.2,1.4-10.6,4.9-10.6,4.9V-14.7z"/>
				</g>
				<g id="g2096" transform="translate(171.3067,177.8224)">
					<path id="path2098" inkscape:connector-curvature="0" class="st4" d="M-2.2-14.6c0,0,6.3-2.7,10.7-4.4
						c4.3-1.7,7.7-1.9,10.3-2.2c1.2-0.1,9.6-1,9.6-1v-0.5c0,0-5.1,0.4-9.6,0.8c-4.6,0.4-6.6,0.6-10.3,1.8
						c-3.8,1.3-10.7,3.7-10.7,3.7V-14.6z"/>
				</g>
				<g id="g2100" transform="translate(171.3067,173.5687)">
					<path id="path2102" inkscape:connector-curvature="0" class="st4" d="M-2.2-14.5c0,0,6.3-2,10.7-3.1s8.3-1.6,10.3-1.7
						c2-0.1,9.6-0.8,9.6-0.8v-0.5c0,0-4.4,0.3-9.7,0.7c-4.3,0.3-7.8,0.6-10.3,1.2C5.6-18-2.2-16.2-2.2-16.2V-14.5z"/>
				</g>
				<g id="g2104" transform="translate(171.3067,169.38341)">
					<path id="path2106" inkscape:connector-curvature="0" class="st4" d="M-2.2-14.3c0,0,5.2-0.9,10.7-1.8
						c4.1-0.7,9.7-1.1,10.3-1.1c0.6,0,9.7-0.6,9.7-0.6v-0.5c0,0-5.8,0.3-9.7,0.5c-4,0.2-8,0.5-10.3,0.7C3.3-16.7-2.2-16-2.2-16
						V-14.3z"/>
				</g>
				<g id="g2108" transform="translate(171.3067,165.0518)">
					<path id="path2110" inkscape:connector-curvature="0" class="st4" d="M-2.2-14.2c0,0,8.2-0.3,10.7-0.4
						c2.5-0.1,19.9-0.8,19.9-0.8v-0.5H-2.2V-14.2z"/>
				</g>
				<g id="g2112" transform="translate(192.8893,189.2569)">
					<path id="path2114" inkscape:connector-curvature="0" class="st4" d="M-2.9-14.9c-7.4,1.6-9.1,4.3-10.3,6
						C-14.5-7.3-23.8,6.4-23.8,6.4V3.3c0.4-0.5,8.4-11,10.6-13.9c2.5-3.3,6.5-4,10.3-4.8c3.8-0.8,9.7-1.9,9.7-1.9v0.4
						C6.8-16.9-1-15.4-2.9-14.9"/>
				</g>
				<g id="g2116" transform="translate(192.8893,187.02521)">
					<path id="path2118" inkscape:connector-curvature="0" class="st4" d="M-2.9-14.9c-6.1,1.2-8.5,3.1-10.3,5.4
						c-1.8,2.3-10.6,14-10.6,14V1.6c0.4-0.4,8.4-10,10.6-12.5c2.5-2.9,6.1-3.7,10.3-4.4s9.7-1.8,9.7-1.8v0.4
						C6.8-16.7,0.6-15.6-2.9-14.9"/>
				</g>
				<g id="g2120" transform="translate(192.8893,184.7099)">
					<path id="path2122" inkscape:connector-curvature="0" class="st4" d="M-2.9-14.8c-6.3,1.2-7.6,2.2-10.3,5.2
						c-1.7,1.8-10.3,12-10.6,12.4V0.1c0,0,8-8.6,10.6-11.1c3.4-3.3,6.6-3.6,10.3-4.2C0.9-15.9,6.8-17,6.8-17v0.5
						C6.8-16.6-0.4-15.3-2.9-14.8"/>
				</g>
				<path id="path2124" inkscape:connector-curvature="0" class="st3" d="M162.3,178.8h-44.1v-29.5h44.1V178.8z"/>
				<g id="g2126" transform="translate(142.1006,189.51891)">
					<path id="path2128" inkscape:connector-curvature="0" class="st5" d="M-1.4-15h1.5l-1.2-1l0.5-1.5l-1.2,0.9L-3-17.4l0.5,1.5
						l-1.2,1h1.5l0.5,1.5L-1.4-15z"/>
				</g>
				<g id="g2130" transform="translate(142.1563,169.2207)">
					<path id="path2132" inkscape:connector-curvature="0" class="st5" d="M-1.4-14.3h1.5l-1.2-0.9l0.5-1.5l-1.2,0.9L-3-16.7
						l0.5,1.5l-1.3,0.9h1.5l0.5,1.4L-1.4-14.3z"/>
				</g>
				<g id="g2134" transform="translate(147.17731,170.5652)">
					<path id="path2136" inkscape:connector-curvature="0" class="st5" d="M-1.5-14.4H0l-1.2-0.9l0.5-1.5L-2-15.9l-1.2-0.9l0.5,1.5
						L-4-14.4h1.5l0.5,1.4L-1.5-14.4z"/>
				</g>
				<g id="g2138" transform="translate(147.17731,188.1649)">
					<path id="path2140" inkscape:connector-curvature="0" class="st5" d="M-1.5-14.9H0l-1.2-0.9l0.5-1.5L-2-16.4l-1.2-0.9l0.5,1.5
						L-4-14.9h1.5l0.5,1.4L-1.5-14.9z"/>
				</g>
				<g id="g2142" transform="translate(150.9052,184.43739)">
					<path id="path2144" inkscape:connector-curvature="0" class="st5" d="M-1.6-14.8h1.5l-1.2-0.9l0.5-1.5l-1.2,0.9l-1.2-0.9
						l0.5,1.5l-1.3,0.9h1.5l0.5,1.4L-1.6-14.8z"/>
				</g>
				<g id="g2146" transform="translate(150.9052,174.2421)">
					<path id="path2148" inkscape:connector-curvature="0" class="st5" d="M-1.6-14.5h1.5l-1.2-0.9l0.5-1.5L-2.1-16l-1.2-0.9
						l0.5,1.5l-1.3,0.9h1.5l0.5,1.4L-1.6-14.5z"/>
				</g>
				<g id="g2150" transform="translate(152.3018,179.4176)">
					<path id="path2152" inkscape:connector-curvature="0" class="st5" d="M-1.7-14.6h1.5l-1.2-0.9l0.5-1.5l-1.2,0.9L-3.3-17
						l0.5,1.5l-1.3,0.9h1.5l0.5,1.4L-1.7-14.6z"/>
				</g>
				<g id="g2154" transform="translate(136.9816,188.1524)">
					<path id="path2156" inkscape:connector-curvature="0" class="st5" d="M-1.2-14.9h1.5l-1.2-0.9l0.5-1.5l-1.2,0.9l-1.2-0.9
						l0.5,1.5l-1.2,0.9h1.5l0.5,1.4L-1.2-14.9z"/>
				</g>
				<g id="g2158" transform="translate(133.35719,184.425)">
					<path id="path2160" inkscape:connector-curvature="0" class="st5" d="M-1.1-14.8h1.5l-1.2-0.9l0.5-1.5l-1.2,0.9l-1.2-0.9
						l0.5,1.5l-1.2,0.9H-2l0.5,1.4L-1.1-14.8z"/>
				</g>
				<g id="g2162" transform="translate(132.01199,179.40511)">
					<path id="path2164" inkscape:connector-curvature="0" class="st5" d="M-1.1-14.6h1.5l-1.2-0.9l0.5-1.5l-1.2,0.9L-2.7-17
						l0.5,1.5l-1.2,0.9H-2l0.5,1.4L-1.1-14.6z"/>
				</g>
				<g id="g2166" transform="translate(133.35719,174.2296)">
					<path id="path2168" inkscape:connector-curvature="0" class="st5" d="M-1.1-14.5h1.5l-1.2-0.9l0.5-1.5L-1.5-16l-1.2-0.9
						l0.5,1.5l-1.2,0.9H-2l0.5,1.4L-1.1-14.5z"/>
				</g>
				<g id="g2170" transform="translate(137.0345,170.5527)">
					<path id="path2172" inkscape:connector-curvature="0" class="st5" d="M-1.2-14.4h1.5l-1.2-0.9l0.5-1.5l-1.2,0.9l-1.2-0.9
						l0.5,1.5l-1.2,0.9h1.5l0.5,1.4L-1.2-14.4z"/>
				</g>
			</g>
		</g>
	</g>
</g>
</svg>
